<svg width="17" height="17" viewBox="0 0 17 17" fill="none" xmlns="http://www.w3.org/2000/svg">
<path d="M8.24985 12.7501V3.0001M8.24985 3.0001C8.24983 2.65497 8.32921 2.31446 8.48185 2.00492C8.63449 1.69537 8.85629 1.42509 9.1301 1.21498C9.4039 1.00487 9.72238 0.860571 10.0609 0.793237C10.3994 0.725902 10.7488 0.737341 11.0822 0.826669C11.4156 0.915997 11.7239 1.08082 11.9834 1.30838C12.2429 1.53595 12.4465 1.82016 12.5786 2.13902C12.7107 2.45788 12.7676 2.80285 12.745 3.14724C12.7224 3.49164 12.6209 3.82622 12.4483 4.1251M8.24985 3.0001C8.24986 2.65497 8.17048 2.31446 8.01784 2.00492C7.86521 1.69537 7.6434 1.42509 7.3696 1.21498C7.09579 1.00487 6.77732 0.860571 6.43882 0.793237C6.10032 0.725902 5.75087 0.737341 5.4175 0.826669C5.08413 0.915997 4.77577 1.08082 4.51629 1.30838C4.25681 1.53595 4.05316 1.82016 3.9211 2.13902C3.78903 2.45788 3.73208 2.80285 3.75467 3.14724C3.77726 3.49164 3.87877 3.82622 4.05135 4.1251M10.4998 9.0001C9.85095 8.81041 9.28098 8.41557 8.87535 7.87472C8.46971 7.33388 8.25025 6.67616 8.24985 6.0001C8.24944 6.67616 8.02998 7.33388 7.62435 7.87472C7.21871 8.41557 6.64875 8.81041 5.99985 9.0001" stroke="#2B2B2B" stroke-width="1.5" stroke-linecap="round" stroke-linejoin="round"/>
<path d="M12.7476 3.09384C13.1885 3.20719 13.5977 3.41938 13.9444 3.71433C14.2912 4.00927 14.5662 4.37925 14.7487 4.79623C14.9313 5.21321 15.0166 5.66626 14.9981 6.12108C14.9796 6.57589 14.8579 7.02054 14.6421 7.42134" stroke="#2B2B2B" stroke-width="1.5" stroke-linecap="round" stroke-linejoin="round"/>
<path d="M12.7498 12.7501C13.4102 12.7501 14.0521 12.5321 14.576 12.1301C15.1 11.7281 15.4766 11.1644 15.6475 10.5266C15.8184 9.88869 15.7741 9.21224 15.5214 8.60212C15.2687 7.99201 14.8217 7.48232 14.2498 7.1521" stroke="#2B2B2B" stroke-width="1.5" stroke-linecap="round" stroke-linejoin="round"/>
<path d="M14.2251 12.3624C14.2777 12.769 14.2463 13.1822 14.1329 13.5762C14.0196 13.9703 13.8266 14.337 13.566 14.6536C13.3054 14.9702 12.9826 15.23 12.6177 15.4169C12.2527 15.6039 11.8533 15.714 11.4441 15.7406C11.0349 15.7672 10.6246 15.7095 10.2386 15.5713C9.8525 15.4331 9.49887 15.2172 9.19953 14.9369C8.90018 14.6567 8.66146 14.318 8.49812 13.9419C8.33478 13.5658 8.25028 13.1602 8.24985 12.7501C8.24941 13.1602 8.16491 13.5658 8.00157 13.9419C7.83823 14.318 7.59951 14.6567 7.30017 14.9369C7.00082 15.2172 6.6472 15.4331 6.26114 15.5713C5.87508 15.7095 5.46478 15.7672 5.05558 15.7406C4.64638 15.714 4.24697 15.6039 3.88201 15.4169C3.51705 15.23 3.1943 14.9702 2.93368 14.6536C2.67307 14.337 2.48012 13.9703 2.36676 13.5762C2.2534 13.1822 2.22203 12.769 2.2746 12.3624" stroke="#2B2B2B" stroke-width="1.5" stroke-linecap="round" stroke-linejoin="round"/>
<path d="M3.74987 12.7501C3.08949 12.7501 2.44757 12.5321 1.92367 12.1301C1.39976 11.7281 1.02315 11.1644 0.852226 10.5266C0.681306 9.88869 0.725632 9.21224 0.978331 8.60212C1.23103 7.99201 1.67798 7.48232 2.24987 7.1521" stroke="#2B2B2B" stroke-width="1.5" stroke-linecap="round" stroke-linejoin="round"/>
<path d="M3.75211 3.09384C3.31126 3.20719 2.90198 3.41938 2.55528 3.71433C2.20858 4.00927 1.93354 4.37925 1.75099 4.79623C1.56844 5.21321 1.48318 5.66626 1.50165 6.12108C1.52012 6.57589 1.64185 7.02054 1.85761 7.42134" stroke="#2B2B2B" stroke-width="1.5" stroke-linecap="round" stroke-linejoin="round"/>
</svg>
