<svg width="17" height="17" viewBox="0 0 17 17" fill="none" xmlns="http://www.w3.org/2000/svg">
<path d="M5.22073 8.40724C5.06212 8.40724 4.90708 8.45427 4.77521 8.54239C4.64333 8.6305 4.54055 8.75575 4.47985 8.90228C4.41916 9.04881 4.40328 9.21005 4.43422 9.3656C4.46516 9.52116 4.54154 9.66405 4.65369 9.77619C4.76584 9.88834 4.90872 9.96472 5.06428 9.99566C5.21984 10.0266 5.38107 10.0107 5.5276 9.95003C5.67413 9.88933 5.79938 9.78655 5.88749 9.65468C5.97561 9.5228 6.02264 9.36776 6.02264 9.20916C6.02264 8.99648 5.93815 8.79251 5.78776 8.64212C5.63738 8.49173 5.43341 8.40724 5.22073 8.40724ZM5.22073 4.81467C5.06212 4.81467 4.90708 4.8617 4.77521 4.94982C4.64333 5.03793 4.54055 5.16317 4.47985 5.3097C4.41916 5.45623 4.40328 5.61747 4.43422 5.77303C4.46516 5.92858 4.54154 6.07147 4.65369 6.18362C4.76584 6.29577 4.90872 6.37215 5.06428 6.40309C5.21984 6.43403 5.38107 6.41815 5.5276 6.35745C5.67413 6.29676 5.79938 6.19398 5.88749 6.0621C5.97561 5.93023 6.02264 5.77519 6.02264 5.61658C6.02264 5.4039 5.93815 5.19993 5.78776 5.04954C5.63738 4.89916 5.43341 4.81467 5.22073 4.81467ZM8.0194 6.4185C7.80672 6.4185 7.60275 6.50298 7.45237 6.65337C7.30198 6.80376 7.21749 7.00773 7.21749 7.22041V8.02232C7.21749 8.235 7.30198 8.43897 7.45237 8.58936C7.60275 8.73975 7.80672 8.82424 8.0194 8.82424C8.23208 8.82424 8.43605 8.73975 8.58644 8.58936C8.73683 8.43897 8.82132 8.235 8.82132 8.02232V7.22041C8.82132 7.00773 8.73683 6.80376 8.58644 6.65337C8.43605 6.50298 8.23208 6.4185 8.0194 6.4185ZM14.8357 5.27176C14.559 5.11259 14.2535 5.01006 13.9368 4.97013C13.6202 4.93021 13.2988 4.95369 12.9913 5.0392C12.6712 5.12492 12.3732 5.27803 12.1172 5.48828L2.81498 0.107436C2.69308 0.0370535 2.55479 0 2.41403 0C2.27326 0 2.13498 0.0370535 2.01307 0.107436C1.8892 0.177063 1.78606 0.278353 1.7142 0.400939C1.64234 0.523526 1.60434 0.663005 1.60409 0.805101V11.3663C1.13085 11.5259 0.720522 11.8317 0.432276 12.2396C0.14403 12.6475 -0.00724364 13.1363 0.000266715 13.6357C4.37144e-05 14.2628 0.24468 14.8652 0.682061 15.3145C1.11944 15.7639 1.715 16.0247 2.34185 16.0415H2.80696C5.43462 16.0353 8.01387 15.3339 10.2828 14.0086C12.5518 12.6833 14.4297 10.7812 15.7258 8.49545C16.0251 7.94855 16.1005 7.30679 15.9359 6.70542C15.7714 6.10405 15.3798 5.59006 14.8437 5.27176H14.8357ZM3.20792 2.19241L11.1388 6.77134C10.259 8.08424 9.08273 9.17185 7.70504 9.94636C6.32736 10.7209 4.78686 11.1606 3.20792 11.23V2.19241ZM14.3305 7.70958C13.14 9.80712 11.4014 11.5413 9.30084 12.7265C7.2003 13.9117 4.81694 14.5032 2.40601 14.4376C2.19333 14.4376 1.98936 14.3531 1.83897 14.2028C1.68858 14.0524 1.60409 13.8484 1.60409 13.6357C1.60347 13.5283 1.62444 13.4218 1.66577 13.3226C1.70709 13.2234 1.76793 13.1336 1.84467 13.0583C1.99532 12.9131 2.19677 12.8325 2.40601 12.8338H2.81498C4.87407 12.833 6.89601 12.2854 8.67409 11.247C10.4522 10.2086 11.9226 8.71665 12.9351 6.9237C12.9838 6.83574 13.0503 6.75891 13.1304 6.69815C13.2105 6.63739 13.3024 6.59404 13.4002 6.57086C13.6024 6.51536 13.8183 6.54127 14.0017 6.64303C14.1857 6.74193 14.3238 6.90871 14.3867 7.1079C14.4496 7.30708 14.4323 7.52295 14.3385 7.70958H14.3305Z" fill="#2B2B2B"/>
</svg>
