<svg width="20" height="20" viewBox="0 0 20 20" fill="none" xmlns="http://www.w3.org/2000/svg">
<path d="M19.8621 9.59103L10.4552 0.176014C10.2207 -0.0586713 9.84828 -0.0586713 9.61379 0.176014L0.151724 9.38395C0.0551724 9.48059 0 9.60483 0 9.74288V19.3097C0 19.5997 0.17931 19.8343 0.427586 19.9448V20H19.3241C19.6966 20 20 19.6963 20 19.3236V9.96376C20 9.82571 19.9448 9.70147 19.8483 9.60483L19.8621 9.59103ZM10.0138 12.7524C11.931 12.7524 13.4759 14.2985 13.4759 16.2174V18.8818H6.55172V16.2174C6.55172 14.2985 8.09655 12.7524 10.0138 12.7524Z" fill="#979592"/>
</svg>
