<svg width="19" height="20" viewBox="0 0 19 20" fill="none" xmlns="http://www.w3.org/2000/svg">
<g clip-path="url(#clip0_1_13)">
<path d="M2.27137 0C1.02212 0 0 1.05882 0 2.35294V17.6471C0 18.9412 1.02212 20 2.27137 20C3.52062 20 4.54274 18.9412 4.54274 17.6471V2.35294C4.54274 1.05882 3.52062 0 2.27137 0Z" fill="#1B1B1B"/>
<path d="M16.7286 10.5883C15.4794 10.5883 14.4573 11.6471 14.4573 12.9412V17.6471C14.4573 18.9412 15.4794 20 16.7286 20C17.9779 20 19 18.9412 19 17.6471V12.9412C19 11.6471 17.9779 10.5883 16.7286 10.5883Z" fill="#1B1B1B"/>
<path d="M9.4489 5.84703C8.22236 5.84703 7.22296 6.88232 7.22296 8.15291V17.6706C7.22296 18.9411 8.22236 19.9764 9.4489 19.9764H9.55111C10.7777 19.9764 11.7771 18.9411 11.7771 17.6706V8.14115C11.7771 6.87056 10.7777 5.83527 9.46026 5.83527L9.4489 5.84703Z" fill="#1B1B1B"/>
</g>
<defs>
<clipPath id="clip0_1_13">
<rect width="19" height="20" fill="white"/>
</clipPath>
</defs>
</svg>
