<svg width="19" height="12" viewBox="0 0 19 12" fill="none" xmlns="http://www.w3.org/2000/svg">
<path d="M3.07699 1.71093C3.08994 1.17624 3.39271 0.697814 3.92375 0.635885C4.07675 0.618481 4.25242 0.607147 4.45237 0.607147C4.65232 0.607147 4.82799 0.61848 4.98099 0.63629C5.51244 0.697814 5.8148 1.17624 5.82775 1.71093C5.84678 2.49779 5.86904 3.85212 5.86904 5.86905C5.86904 7.88598 5.84678 9.24031 5.82775 10.0272C5.8148 10.5619 5.51204 11.0403 4.98099 11.1022C4.82799 11.1196 4.65232 11.131 4.45237 11.131C4.25242 11.131 4.07675 11.1196 3.92375 11.1022C3.3923 11.0403 3.08994 10.5619 3.07699 10.0272C3.05797 9.24031 3.03571 7.88598 3.03571 5.86905C3.03571 3.85212 3.05797 2.49779 3.07699 1.71093ZM15.1373 1.71093C15.1243 1.17624 14.8216 0.697814 14.2905 0.635885C14.1375 0.618481 13.9618 0.607147 13.7619 0.607147C13.5619 0.607147 13.3863 0.61848 13.2333 0.63629C12.7018 0.697814 12.3995 1.17624 12.3865 1.71093C12.3675 2.49779 12.3452 3.85212 12.3452 5.86905C12.3452 7.88598 12.3675 9.24031 12.3865 10.0272C12.3995 10.5619 12.7022 11.0403 13.2333 11.1022C13.3863 11.1196 13.5619 11.131 13.7619 11.131C13.9618 11.131 14.1375 11.1196 14.2905 11.1022C14.822 11.0403 15.1243 10.5619 15.1373 10.0272C15.1563 9.24031 15.1786 7.88598 15.1786 5.86905C15.1786 3.85212 15.1563 2.49779 15.1373 1.71093Z" stroke="#2B2B2B" stroke-width="1.21429" stroke-linecap="round" stroke-linejoin="round"/>
<path d="M5.86622 7.07605C8.02683 7.08768 10.1875 7.08593 12.3481 7.07079M12.3477 4.66691C11.3706 4.66003 10.162 4.65477 8.70198 4.65477C7.62208 4.65477 6.67898 4.6576 5.86581 4.66205M0.629409 3.76551C0.643981 3.16241 1.02769 2.65322 1.63079 2.63379C1.75785 2.6298 1.88501 2.6298 2.01208 2.63379C2.61517 2.65322 2.99889 3.16201 3.01346 3.76551C3.0256 4.26053 3.03572 4.95389 3.03572 5.86905C3.03572 6.78422 3.02519 7.47758 3.01346 7.9726C2.99889 8.5757 2.61517 9.08489 2.01208 9.10432C1.88501 9.10831 1.75785 9.10831 1.63079 9.10432C1.02769 9.08489 0.643981 8.5761 0.629409 7.9726C0.617266 7.47758 0.607147 6.78422 0.607147 5.86905C0.607147 4.95389 0.617671 4.26053 0.629409 3.76551ZM17.5849 3.76551C17.5703 3.16241 17.1866 2.65322 16.5835 2.63379C16.4564 2.6298 16.3293 2.6298 16.2022 2.63379C15.5991 2.65322 15.2154 3.16201 15.2008 3.76551C15.1887 4.26053 15.1786 4.95389 15.1786 5.86905C15.1786 6.78422 15.1891 7.47758 15.2008 7.9726C15.2154 8.5757 15.5991 9.08489 16.2022 9.10432C16.3293 9.10831 16.4564 9.10831 16.5835 9.10432C17.1866 9.08489 17.5703 8.5761 17.5849 7.9726C17.597 7.47758 17.6071 6.78422 17.6071 5.86905C17.6071 4.95389 17.5966 4.26053 17.5849 3.76551Z" stroke="#2B2B2B" stroke-width="1.21429" stroke-linecap="round" stroke-linejoin="round"/>
</svg>
